<svg width="16" height="16" viewBox="0 0 16 16" fill="none" xmlns="http://www.w3.org/2000/svg">
<path d="M8.03125 0C3.63444 0 0 3.57188 0 7.96875C0 12.3656 3.63444 16 8.03125 16C12.4281 16 16 12.3656 16 7.96875C16 3.57188 12.4281 0 8.03125 0Z" fill="#EAAE54"/>
<path d="M16 7.96875C16 12.3656 12.4281 16 8.03125 16V0C12.4281 0 16 3.57188 16 7.96875Z" fill="#EAAE54"/>
<path opacity="0.8" d="M8.03125 1.875C4.67494 1.875 1.875 4.61247 1.875 7.96875C1.875 11.325 4.67494 14.125 8.03125 14.125C11.3876 14.125 14.125 11.325 14.125 7.96875C14.125 4.61247 11.3876 1.875 8.03125 1.875Z" fill="#9E6105"/>
<path d="M12.1643 5.71436C12.2853 5.64792 12.3301 5.49555 12.2577 5.37798C11.7275 4.51706 10.9474 3.83527 10.0188 3.4255C9.01384 2.98202 7.89075 2.88186 6.82313 3.14048C5.7555 3.3991 4.80276 4.00212 4.11211 4.85635C3.42146 5.71058 3.03136 6.76849 3.00206 7.8666C2.97277 8.96472 3.30592 10.0419 3.95005 10.9318C4.59417 11.8216 5.51341 12.4745 6.56573 12.7897C7.61805 13.1049 8.74487 13.0647 9.77209 12.6755C10.7212 12.3158 11.5365 11.6766 12.1118 10.8451C12.1904 10.7316 12.1538 10.577 12.0365 10.5043C11.9192 10.4315 11.7656 10.468 11.6864 10.5811C11.1694 11.3194 10.4413 11.8872 9.59491 12.2079C8.67041 12.5583 7.65627 12.5944 6.70918 12.3107C5.7621 12.0271 4.93478 11.4394 4.35507 10.6386C3.77536 9.83772 3.47552 8.86824 3.50188 7.87994C3.52825 6.89163 3.87935 5.93952 4.50093 5.17071C5.12251 4.4019 5.97998 3.85918 6.94084 3.62642C7.90171 3.39366 8.91248 3.48381 9.81699 3.88295C10.6451 4.24836 11.3419 4.85413 11.8188 5.61893C11.8918 5.73609 12.0432 5.78079 12.1643 5.71436Z" fill="#EBBF6E"/>
<path d="M12.3695 9.86334C12.4965 9.91751 12.644 9.85865 12.6918 9.7291C12.811 9.40559 12.8965 9.07061 12.9468 8.72952C12.9669 8.59293 12.8656 8.47061 12.7282 8.45731C12.5908 8.44402 12.4693 8.5448 12.4484 8.68128C12.4039 8.9715 12.3312 9.25666 12.2312 9.5327C12.1842 9.66252 12.2425 9.80918 12.3695 9.86334Z" fill="#EBBF6E"/>
<path opacity="0.3" d="M14.125 7.96875C14.125 11.325 11.3876 14.125 8.03125 14.125V1.875C11.3876 1.875 14.125 4.61247 14.125 7.96875Z" fill="#EAAE54"/>
<path opacity="0.17" d="M13 7.97449C13 10.7143 10.7539 13 8 13V3C10.7539 3 13 5.23467 13 7.97449Z" fill="#9E6105"/>
</svg>
